/* XPM */
static char *_3d4596bc2a64a7dac65cad1823dddcf[] = {
/* columns rows colors chars-per-pixel */
"64 64 222 2 ",
"   c #050404",
".  c #090606",
"X  c #090807",
"o  c #080708",
"O  c #0C0B0A",
"+  c #070808",
"@  c #120403",
"#  c #1B0504",
"$  c #130906",
"%  c #1D0806",
"&  c #110E0D",
"*  c #1C0C0B",
"=  c #12100F",
"-  c #19110B",
";  c #151311",
":  c #1A1614",
">  c #1C1816",
",  c #1D1B19",
"<  c #250504",
"1  c #2B0403",
"2  c #240806",
"3  c #2C0806",
"4  c #240C0B",
"5  c #2B0A09",
"6  c #330302",
"7  c #3C0403",
"8  c #340905",
"9  c #3B0B04",
"0  c #330D0C",
"q  c #3B0B0A",
"w  c #22100D",
"e  c #2C110E",
"r  c #3C130C",
"t  c #38150A",
"y  c #231313",
"u  c #2C1614",
"i  c #241915",
"p  c #221D1C",
"a  c #2A1D1C",
"s  c #321311",
"d  c #3A1514",
"f  c #391917",
"g  c #341D1B",
"h  c #391B1B",
"j  c #341C14",
"k  c #25211E",
"l  c #2B201F",
"z  c #3D221D",
"x  c #34211C",
"c  c #252322",
"v  c #2A2422",
"b  c #2E2826",
"n  c #2C2C2C",
"m  c #312927",
"M  c #3A2A26",
"N  c #342C2A",
"B  c #3B2C2A",
"V  c #362424",
"C  c #37302D",
"Z  c #3A322E",
"A  c #333333",
"S  c #3D3531",
"D  c #3A3A3A",
"F  c #430403",
"G  c #4C0200",
"H  c #430B04",
"J  c #450D0B",
"K  c #4C0C06",
"L  c #520403",
"P  c #560B06",
"I  c #43120C",
"U  c #51130B",
"Y  c #591204",
"T  c #431513",
"R  c #431B19",
"E  c #491B16",
"W  c #571D1A",
"Q  c #5A1615",
"!  c #610C04",
"~  c #620907",
"^  c #750A05",
"/  c #661709",
"(  c #71140D",
")  c #781708",
"_  c #691916",
"`  c #7B1B18",
"'  c #47241C",
"]  c #5C271C",
"[  c #562718",
"{  c #4C220A",
"}  c #6A2708",
"|  c #77260E",
" . c #64231D",
".. c #672A18",
"X. c #74291A",
"o. c #442521",
"O. c #4C2B24",
"+. c #462826",
"@. c #5B2B26",
"#. c #562927",
"$. c #49322E",
"%. c #5B362A",
"&. c #433632",
"*. c #433A36",
"=. c #4A3734",
"-. c #563B36",
";. c #6E2C22",
":. c #652726",
">. c #712723",
",. c #623A2E",
"<. c #673737",
"1. c #4E433E",
"2. c #5D4133",
"3. c #7E4A29",
"4. c #624739",
"5. c #704F33",
"6. c #75513B",
"7. c #434242",
"8. c #4D4242",
"9. c #4C4B4B",
"0. c #584848",
"q. c #595657",
"w. c #6A4D4D",
"e. c #664849",
"r. c #795454",
"t. c #6C534F",
"y. c #7E6E5B",
"u. c #696969",
"i. c #756A6A",
"p. c #797575",
"a. c #8C0C07",
"s. c #870B0B",
"d. c #951B08",
"f. c #8A1E16",
"g. c #8D1D0E",
"h. c #AD1406",
"j. c #88290A",
"k. c #982B09",
"l. c #99350B",
"z. c #882816",
"x. c #982916",
"c. c #9D351A",
"v. c #8B370B",
"b. c #A5270E",
"n. c #A4300C",
"m. c #AB340D",
"M. c #A82913",
"N. c #A93616",
"B. c #B73818",
"V. c #B33A0D",
"C. c #872821",
"Z. c #833A27",
"A. c #AF3F20",
"S. c #C82813",
"D. c #C83B16",
"F. c #9F430F",
"G. c #A6460E",
"H. c #B84B11",
"J. c #A0421B",
"K. c #8E4421",
"L. c #8F542F",
"P. c #9F532D",
"I. c #8D4934",
"U. c #BA5C2D",
"Y. c #AD4D31",
"T. c #BF6533",
"R. c #D34F0F",
"E. c #C7491B",
"W. c #CA5514",
"Q. c #D04B11",
"!. c #E15E1D",
"~. c #CF6414",
"^. c #E15823",
"/. c #CF702D",
"(. c #DC782C",
"). c #D46A3C",
"_. c #D3752D",
"`. c #E46C29",
"'. c #8F5E4B",
"]. c #956A57",
"[. c #916E4E",
"{. c #AA6A4D",
"}. c #B76748",
"|. c #BA6D53",
" X c #B67252",
".X c #857560",
"XX c #A97766",
"oX c #C1614F",
"OX c #C4714A",
"+X c #D17E5D",
"@X c #E47E47",
"#X c #CA7866",
"$X c #DD863A",
"%X c #EC8738",
"&X c #B68658",
"*X c #9E8368",
"=X c #D78949",
"-X c #C8894E",
";X c #EA9B4C",
":X c #F5A247",
">X c #C98768",
",X c #D39966",
"<X c #C7977B",
"1X c #C49A64",
"2X c #D8B37C",
"3X c #D3A668",
"4X c #E5B367",
"5X c #EEAE6E",
"6X c #F8C07C",
"7X c #D4A788",
"8X c #D4B395",
"9X c #EFBD84",
"0X c #F6C888",
"qX c #E4C594",
"wX c #F5CC97",
"eX c #DFC0A0",
"rX c #EDD5A6",
"tX c #E3CEB7",
"yX c #EACEAB",
"uX c #F6E4BD",
"iX c #F1E2C2",
"pX c #9B9B9B",
/* pixels */
"    . . X   .   X X X X X O O + + + X X X O O O X O O X O +       X X X X + + X X o   O & O O O       + + + o + + + + + o +     ",
"  O = O O X . X = O O + = > A c +     +     o X O X X O O = ; = = ; = = ; = O X o     X X X       O , c , O o O +   O + O O O   ",
". O O O O . X & ; :   O c p.pXn O + + + X X +       X O = : > > > > > > = .         O X X X   + O , 9.u.p ; = = + +   o O & &   ",
"  = O O X X = : , &   O c q.u.c = + + + X O ; & = O   + O O ; : > : ; O     X O ; : ; O = X   O & c A D p o + ; o     + X O &   ",
"+ O O X O ; , > +     o c D D , + O O + O : p , ; O O .   O X ; &         X O ; p c c & ; ; O O = , n c +     + + ; X   X O & + ",
"X O X X ; p ;     ; +   + n , + & + ; , ; & O & = & O o       .           X O = ; = ; O , n O O + + + + + + + : , : & & X X O   ",
"  X   O p ; .   + c =       +   + O n ,       + o .   o     X X . +       . + X +       & D n n D 9.9.7.D c c A p O O > O . X + ",
"X   O > , =     O 7.D , , n n c A q.n =             X O & & > p p > ; ; O X             + O p n D 7.A n n c , ; + + ; , : O     ",
"    ; i v &     o n A 7.9.u.u.n , , >   + + .     O ; p c N Z *.*.*.Z v p : O     X X &                             & v , ;     ",
"  X , k p X       +     + + +           +       = > p v v S *.1.1.*.S v k p > = .     +             O               O p k p X   ",
"+ O p v : O         + ;           +         + . O ; ; , p N N S *.C N , > : = & X           X X     n ,   X           : v p O . ",
"X = v c ;           o , o   n =         + O & O X O & : p v N Z *.N b p : = O X O = O X     O O     n A ; X           ; k v = . ",
"  ; v p =           + , O + D p + X . . = > b l = O & ; ; p c b S v k : ; & X = v m > = X O O O   & c A ; O           = p v =   ",
"  > k k o         + + : O + 7.p X X + O : C N N m > O = ; > p N n c > = ; O > b N m N > O X & O   : n D O X           O p k > + ",
"X , k p             + ; = + 7., X X + = > , = = k C , = ; ; p N N p = ; = > N v = = > , = O O & + p A A .               k k p X ",
"X p v ,             + O o + 9., X   + ; k = O O = v m : = ; , N Z > ; & : m b & X O ; , = X O & + , 7.n                 , c i X ",
"O > k :         .     X . O 7.p . o X ; p ; ; v O : v , = = , N v > ; ; , v ; O c ; ; p = X X X   > q.n                 : p > O ",
"O > b ;         o         : 7.c     o & p : O b = & b l p p : N c > p i k b = ; b & ; , = X X   + , 7.A             .   & b i O ",
"O , N O         X .       : q.N . .   o : , ; ; o = p c B N v N b m N v k p & X & & ; & X   X = ; , D D     . .         O N , X ",
"O i N O .       X X .     : t.V @ o o   X = ; O o = , p *.S N C M m Z C v > = X O ; & .   X O O + ; 9.D . . . .         O N p O ",
"X p N . . o .   . o . .   p e.V $   X . . = ; O O > c c S *.S $.#.z &.B b > > & & = & . + X +   + O q.u.o o .       . X X N p O ",
"O p N   . .       O X .   c e.h # O & O O & ; ; p N l p b *.&.<.>.' *.N v p N k ; : = X O & O = O = q..Xo o .       . . . N p O ",
"O k N   X .       o o o   l w.h $ ; & & X & : v S m b p c S $.>.C.#.B n v k v N k , : X O = ; ; = : 8.p.o o o       . +   N p O ",
"O k N   X   .     o   .   b r.d % ; = ; O = v S &.o.a c c N =.` C.@.N b c k , v &.+.> = ; = ; : = : 8.i.o o .     . X     N k & ",
"O k v   X . .             g e.d % ; ; & O = N *.$.h g v v N $.` x.:.b c c p : , B #.a X ; ; : : : u 0.i.@           X     b k X ",
"X p p   X X X         .   V e.q % ; ; ; X ; k *.$.d f k b b $.>.f.#.V c p , ; ; M R * . & ; ; : > 4 8.t.@         X . .   p p . ",
"  i >   X X X   X   + .   B <.q * ; : ; = O ; Z B R u a v b *.@.x.] v l p : = u u y   O ; : : p : 4 $.e..         X X X   > > . ",
"+ > >   X O O X   +     . V <.q y c > : ; O X > M h 5 f z B S @.M.:.l b V : * 4 * .   & : : c v i 4 -.w.@         X O X   , >   ",
"+ k k   X & O O   X     @ h <.q i b p : ; o   O , i 4 E _ ' $.@.x. .g B u * * * o   o = : p v N y 4 -.w.@   .   X O O O   k k + ",
"+ k k   X O O O     o   @ f :.q u N c , : &   . & : 5 d _  .O.:.b.| o.+.q 5 * & o   o : , c C b y < -.w.. .     X & O X   l k X ",
"X p k X X O O O X   X   @ 0 :.F w N v c p ; .   O : * J Q ;.:.` b.| _ W L q 4 & .   & p p v C p * 1 #.r.. .     X & O X X k , X ",
"X , > & X O & O X     X @ 5 :.K 2 v N C N c . . o & * I / X.Z.z.M.n.f.` ^ P y O o o p N N C v : * 1 +.r.#     X X O O X & , , X ",
"O , : . X O O & O .   O . 5 :.K 2 k Z *.k > X     O : 0 x.M.N.c.m.H.| ^ h.( y X   = : k *.Z k = * 1 R r.#   o o o & O   + : , O ",
"O > , .   O O O & O . . @ 3 _ L < > &.Z : ; X   .   O y z.(.W.x.H.H.K h.D.( - +   O = > S &.> = * 6 U w.< . o & o O O     , , O ",
"O > ,     X = O : O .   @ 6 d.^ 1 : C m ; O           y N.:X=X| E.F.P Q./.[ O       O = b C : = * 6 T <.# o O & O O O     p : O ",
"O , c X   X O O & O X   @ 9 n.) 2 > N > O X           o x.;X4XA.E.m.g.$X%X[       X X O > C > = * 6 J W # O O & o O O   X p , O ",
"O > k X   X O O & & O . @ F V.j.3 > N = X O   +         T Y.).S.M.M.S.;XT.q     +   X X = N > : & 6 J Q # O & o X O .   O p , & ",
"& > p &   . O O & & O O . H Q.k.5 > k = +               * o. .~ ( ) ( ;.[ $           + = k > ; o 7 K Q # & = o X O     O c > O ",
"O : c ;     O O O O ; O @ P R.m.1 : : O X         .       = $._ ! U f x $   +     +   + O : ; O $ 7 P ( 4 & & o O X   . ; k : O ",
"O : p > .   . O O O = & @ Y R.M.1 - : O       X X X .       O R U U +.:   o O X + +     O : = X V 7 s.s.4 & o o X o   . > p : O ",
"X ; p k O     O O X & ; # Y ^.V.r X : O       X X O & O O   . & R ' :   o O O o o . .   O : X > a 7 a.s.4 = X X .     O p p ; X ",
"X = : k & X   X O X O : % ! ^.B.T : $ O       + O O & O = O o o & & . . & & O o o o     O O : b * F d.a.w X X X .   o & c : = X ",
"o & ; p : O     X X X : 2 ! ^.B.q b O O       X o O & ; = = = O . O . & = & O O .       O & b > $ 9 k.d.e X X .     O : p : & . ",
". O ; , v ;     X X O , % / `.E.H i , O       . X O O ; = = = ; O O & ; = & & O .       O > k : $ 8 k.d.s O X       ; v , ; O . ",
". O ; : v , X     . & - 8 J.%XH.~ 4 c X +       X X O ; ; = = : ; = = ; ; = O o         O v p & & 8 l.j.s O X     X p v ; ; O X ",
"X O & ; , p &       . 3 K.(.=X).C.8 y >         X + O ; ; ; = ; : ; = ; ; & o o         > k ; O O 1 } } 1 .       ; v p ; = O X ",
"X X & ; : > : .   . t P.=X(./.T.{.>.5 y =       X X O = : ; = : ; ; ; : ; & o O .     = k p . . # 3 9 H 6 # @   . > v > ; ; X X ",
"X   O = : : p o   H U.=X X..{ [ {.>X..2 i O   X + O O ; : : ; > : ; : : ; = O o     O p , O   8 K Y / } P 6 1 @ X p > : ; O     ",
"X   . ; ; : , = @ K.5X>X' X   . ' 7X}.q * =   o o O O ; > > : ; : : : > ; & O X     ; : O   $ } G.W.~.W.k.K 1 # - p : : ;     X ",
"+     O = ; > p $ L.wX<X*       * <X>XJ O : o o o O O & ; : > : : : > : = & O X   o : O     $ 9 } v.G.l.! F 7 6 0 : ; = O   . o ",
"      . O & ; p & K.0X&X@       * <X#Xq . = & o O O O O ; > > > > : > ; O & X   X ; ;   . . o . # 6 9 L G G L ) ( 5 & X         ",
"          O & > y ..2X-X@       e 7XoX6 o o & & . O O X = ; > > > > > ; O O o X O =     X X o + < G ! ! L F P J.+XW .           ",
"            O ; > { 4X1X<       j 7X}.3 o     : & . X X O ; : > > , ; & O X . O : +     + + + o 1 g.B.j.7 # 3 ;.<X'..           ",
"              O > E 3XqXe       j 8XoX5 .     o ; X   o O O : > : : ; & O     ; o     + O O O o 5 Y.@XN.6 . y s '.].@           ",
"  . .           & s 1XuXR       z qX|.1   .       X .   X O ; > : : = & X   .       o X & O O o 2 OX5XU.6 = p * x z       o     ",
"  O X X         O w &XiXO.      O.tX|.3 .   o o   .       X = : , ; & O     . . o X O O & O O + # |.6X$X0 : & O + +     o X X . ",
"X X & O o       + $ [.uX2.      %.tX&X4 O o o o X +       X O ; : ; & + + +     X O O & O O X + * P.0X=Xr ; X       X X O & X X ",
"X X & O X         . 3.rX4.+   . <.tXXXy & & O o   X +     + O O = = &     + + + O O ; & ; O + + $ K.0X2X[ O         X O O & O X ",
"O X & & & O X X     [ qXt.$   . ,.tXXX4 = = & O X X + X +   + + O & O   X + + O & = = = O O +   o ..0XrX6.X       X O O & & X O ",
"O X & & & O X X     9 2Xy.* . . %.tX'.% O ; = = & O X + +   + O O O +   + X & = ; ; = = O X +   . J ,XiX*X$   . + X O = & & X X ",
"O O O = & & O X . + $ &X.X- O . [ 8XI.$ & = = = = = = X + + X O ; O X X & = ; ; ; ; = X         . 2 I.wX8Xj   . X O & & & & X O ",
"      O O O = O X X $ 3..X- X @ I |.[ o   O = & = = = = & & = ; ; = O = = : ; ; ; = X +         o @ q {.8X2.O X O ; O O X   +   ",
"              + X X . { 5.i +   % ] 2       X X O O = O O & & O & O O O & O & O O                 . & e 4.-.O   X +             ",
"    .                 @ - - = X   .           + +   +     + + + + X + + + +       .   .         X = & O X = X                 . "
};
