/* XPM */
static char *a48fdbdb8b9e4d06a5ddec3e1f0f75b6[] = {
/* columns rows colors chars-per-pixel */
"64 64 37 1 ",
"  c #460000",
". c #4C0000",
"X c #540000",
"o c #5C0000",
"O c #640000",
"+ c #6B0000",
"@ c #730000",
"# c #7C0000",
"$ c #840000",
"% c #8B0200",
"& c #8F0900",
"* c #910700",
"= c #930C00",
"- c #961300",
"; c #991600",
": c #971900",
"> c #9B1C00",
", c #9E2200",
"< c #A12600",
"1 c #A52C04",
"2 c #A62F09",
"3 c #A73106",
"4 c #A83107",
"5 c #A73109",
"6 c #AA350B",
"7 c #AC390F",
"8 c #AC3711",
"9 c #AE3D12",
"0 c #B03F14",
"q c #AF4116",
"w c #B14216",
"e c #B3461A",
"r c #B54A1D",
"t c #B84D1F",
"y c #B84E21",
"u c #BA5324",
"i c #BD5927",
/* pixels */
"599,*%%$$$##@@@@@#$%=-,80,=**;;;-=-=*%#@@++++OOOOO+#%%=;>>;;<11<",
"qe5;%%%$$##@+@++++#%==-1e4;-;<<>;===*%#@+++++OOOOOO@#$%;<<150w98",
"e8,=*%%$##@++O+O++@%*=-<08>;,11<;==*%$@@++OOOOooooOO@@$;<26wtuee",
"e5>=**%$@@+OOOOOO+@$=--,69<<111>-=**%##++OOOoOoXXXoOO@$-160ruirt",
"92>=*=%#@++OOOOOOO@$-;;<8e061<:-==%$###++OoooooXXXooO+#;47wtiiut",
"81;===%#++OOOooOOO@$->>1wur8<;=%&%$@@@@+OOOooXXXXXXooO#=4wrtiuuw",
"3<;-=**$@+OOOooO++#%;><6tur1;=*%%$#@@+@+OOOooXXXXXooOO@=6wrruur7",
"1>-==-*%#+OOOoOOO+$-><6eyu8,*%%%$$#@+@+++OOOooooooooO+#-6wrryuw6",
"<>-==--=$#+OOOO++#%:<1wyyq,=%$#$$@#+@++@+++++OOOoooO+@$>67eruyw5",
">;=-=->>=$#@+O++@#=<20rte1&$$#@+@++++++@+@@@@+++OOO+##%>67qruuw1",
">-===-><<=$@+@@#$%>5wrtr5&##@@+++O+++++++@#$#@@++@@#$$*<<69eyt9<",
"******-<1>=$#$$$%;5werr6-$#@+OOOOOO++++@@#$*$$##@#$#$$%-,<5qee1-",
"*%%%$$%;36,-==-->10ruy0,$#@++OOOOOO++++++$*-->=%$%$$$$$%=-,687,&",
"%$$$###=5q961<<<18ruue1-%#@+OOOOOoO+++++@%-,262<;=%$$$$%%&><13;%",
"$##@+@@$:68ww7668wrew6>=$#@+OOOOOOO++++@$=<5007<-=%$$#$%%%;,,>=$",
"#@@++O+@$=,18w7900655<;=$#+OOOOOOOO+++@#=:1wwe6>=%$###$$$$=,,=%$",
"#@+OOOO+@#%-5ee0661,<1>=$@++OOOoOO+++@#*>10er01;&%$##$$$$$=,1,%$",
"@+OOooO+++##;8e621,-:<1>%#++OOOOOO+++#%;<5wee01;*%$#####$$=>1>$$",
"@+OooOOO++@@%>11<:=%%-<6;#@++OoO+++@#=,<60wer01;=%$$$$$$$%=,<;$$",
"@+OoooOOOO+@$;:;%$$#$$-21=@+OOoOOO+@%<180wrrr01<>-====-:>,,11:%$",
"#+OoooOOOO+@$=-&#@@@@#$;,,%@+OoOOO+#%-<160ryr01<>-=;--;:>><63>&$",
"#+OOOOOOOO+@$==$@@+@@@#$>1,$@+OoO+@##$=,60rrw6<:=*=-&&&%==<61>=%",
"%#OOOOOOOO+@$=&#@+@+++@#=<,%#+O+O++@##$=<60re6<;*%$#@@@###=1<;-=",
"&$@+OOOOOO+#$-%#@@++++@#&<<%#@O+++++@@@%;<50w61;%$#@+++++@#-<;;=",
"=%#++O+O+++#%-$@@+++++@#%<5&#++OOO+O++@#*;<7w01=$#@++++OO+@$>-==",
"=&$@+++O++@$-,%#@++++++#=56&#++++OOOO++#%->607>%#@++OOOOOO+#;;==",
"==%#@+@++@#%16%#@@@+++@$,61%@+++OOOOOO+@$->187;$@+OOOOOOOO+@&:*=",
"===%##@@@#$=98&$#@+@+@#=,1>%+++OOOoooo+@%-;<66>$@++OOOO+O++@$**=",
"==*%%$###$%,ew>$##@@##$=&%%$@++OOooooOO@$=;><51*#++O+OOOOO+@#%==",
"=*%$$$$$#$=1ew<=$$###$%$@++@+++OOOOoOoO@$*=;<1<>$@++OOOO++@@#%==",
"*%$######$-2ww1;=%$####@+++++O++OOoOOOO@#$$%-><:-$@++O+O++##%===",
"%$@@@+@@@#=1wr6>-$#@@+@+++OOOOOOO+OOO++@##@@$%;-=%#@@@+@@#$*--==",
"O+OOOOO++#%1wr6>=$@++++++OOOO+++@@@+++@@@@+@@$%**==*%%%%=:<:%@+O",
"ooooooooO@$;8t9<%@@+++++OOoooO+@#%%###@@++++@#$$%=><1<<<<<:=#Ooo",
"XXXXXXooO+#&4u8>$@++O+OOoooOOO+@$:,*%$#@+++++@@#$*>1657<:=%@OoXX",
"....XXXXOO@#>91=##@+++OOoOoOOO++#>51,=#+++OOO++@$*,2808<-$@OoXX.",
". ...X.XoO+@%,;%#@@++++OooOOOO+@$<761-#+++OOOOO+@$>6w06:%#+OoX..",
".. . .XXXO+@$;-$##@@++OOOOoOO++#%1w91*@+++OoooOO+$-4w8<*#@OooXX.",
"..   ..XXOO@%;:&$###+++OOOOOO+@#=7e71%@+++OooooOO@%<97>$#+OoXX..",
"  .  ..XoOO#%>;::--&$@++OO+O+@$*<we7<$@++OOooooOO@$;65;$@+OoXX..",
"      .XoO+#=;==;15,,&##@@###%->,3761%++++Oooooo++#&<1-$@+OXX...",
"     .XoOO#&*$$#$=;;,,:&*----=%$$%=,,$@+++OOoooOO+#&<<=#@+oXX.. ",
"    ..XO+#%=$#@@@@@#$=>151>-$##@@@#%;%@+O+OOooooO@#%,,=##+oXX...",
". . .XO@#%%$#@@++O+++#&<99<$@@+@++@#-;$@+OOOooOo++#&,3-$#+OXX.. ",
"....XO#%-=#@@OO+OOO+++#-66:#@++@+++@$&%$@OoOoooOO@#=,5;$##+oXX.X",
"..Xo+$;,;&#@OOooOOOO++@%<,%@++++++++@#$$#+OOOOOOO@$-16;%%$@OooXX",
"XoO+$,5<>&#+OoXXoooOO++#--#++++++OOOO+@@$@OOOOO+@#%,<,=%%%$@+Ooo",
"OO@$-36<>&#OOoXXXoOOO++#$%@++@+++OoooOO@##@+OO+#%-:>:=%%*=&$#+OO",
"+#$=,461<%@OoXX.XoOOOO+@#$@++++OOoooooO+@#$#@@#%,6<>-*%%*=*%$#@+",
"@#%=,1681%@OOoXXXooOOO+@##@+++@+OoXooXooO@$$$$=,7q3>=&%%%$%$#@@+",
"@#$%>1761=#+OoX.XooOoO+@##@++@+OOXXXXXXoO+@$%:57we1;*%$$##$##@@@",
"@#$$;2005<%@OoX..XOOOO+@##@+++++OX.X.XXXoO+@#;69re,=%$##@@@@@@@@",
"@@#$-18611:%@OXX.ooOO++@###+++++OXX..XXXXoO@$>9ee6;$$#@@@+++++@@",
"@@#$=1461161=#OXXoOOO++##$$++++OOXXXXXXXXoO@&1q995=$@@+++++OO++@",
"@@#$-<<1120w<*@OoO+++++@$=%@@+++OOOOoOooXoO#:9w771&#@++++++OOO+@",
"@#$%-:,<11wr6,%@++++++@#$;>%@++++OOOOOoooO@=1e916,%$@+O++OOO+O++",
"#$%=;<16648w61<%#@@++@#$*><:$@+++O+OOOOO+@=19w846:%#@++OO+O+OO++",
"#$=;>,111666061>%##@@#$%=,1<&$@@++++@@@##&1866995-%$++OOOOOOO++@",
"$&->><,-><116781;&$#$$==;<<>=%$@@@@@@##%;,1<;:201;*$@++O+O++O+@#",
"%;:><<>==;,<,1655,--:>>;><<:=$$##$#$$$$:>>:&$$=1<>;%#++++++++@@$",
"-:>,63&%*=;;=-:<1121064<;;;-*%$$$$%%%&&%%%$$###$%->=$@@+++++@@$%",
":>,78>%$===*&%%=;;<30078,-=***%$$$$%$$$$$##@@@@@#$*=&$@@@@@@@#%&",
",,59<=%%===%$$$%%=-><280<=********=%$$##@@@@+++@@@$*=%$#@@@##$-:",
",396;%$%%%%%$$###$*=-,404;=*=*===-=%$$#@@@+@+++++@#$*=%$#$##%-,,"
};
