/* XPM */
static char *_7510bcec12e4bc5a651025332dd3ba6[] = {
/* columns rows colors chars-per-pixel */
"64 64 244 2 ",
"   c #000000",
".  c #0D0000",
"X  c #0C0B09",
"o  c #130000",
"O  c #1A0000",
"+  c #190E0B",
"@  c #191916",
"#  c #10100F",
"$  c #240000",
"%  c #2B0000",
"&  c #2E0A0A",
"*  c #340001",
"=  c #3B0101",
"-  c #3E0802",
";  c #3B0208",
":  c #36090A",
">  c #251716",
",  c #391512",
"<  c #1F231E",
"1  c #27201B",
"2  c #2C2925",
"3  c #3A2D2A",
"4  c #34362D",
"5  c #343A33",
"6  c #383834",
"7  c #2C3430",
"8  c #440101",
"9  c #4C0101",
"0  c #440801",
"q  c #4D0903",
"w  c #440309",
"e  c #4B0109",
"r  c #460A09",
"t  c #540101",
"y  c #5B0101",
"u  c #540B03",
"i  c #5C0903",
"p  c #540109",
"a  c #5B020A",
"s  c #5C0A0B",
"d  c #540B0B",
"f  c #590B12",
"g  c #5B1715",
"h  c #57100E",
"j  c #630101",
"k  c #6B0102",
"l  c #640A02",
"z  c #6A0A02",
"x  c #63020B",
"c  c #6C0109",
"v  c #650A0C",
"b  c #6C0B0D",
"n  c #720102",
"m  c #7A0201",
"M  c #720009",
"N  c #7A0009",
"B  c #760B08",
"V  c #791309",
"C  c #760B12",
"Z  c #681416",
"A  c #771B19",
"S  c #630C10",
"D  c #50231E",
"F  c #78231D",
"G  c #69241F",
"H  c #781D22",
"J  c #4A2522",
"K  c #552C2C",
"L  c #46312A",
"P  c #55312D",
"I  c #473A34",
"U  c #543433",
"Y  c #5D3433",
"T  c #5C3A35",
"R  c #583C3A",
"E  c #452C30",
"W  c #662B29",
"Q  c #772A27",
"!  c #643B3C",
"~  c #693937",
"^  c #733A3B",
"/  c #6D362A",
"(  c #471E25",
")  c #3C433B",
"_  c #3D453C",
"`  c #44443B",
"'  c #474237",
"]  c #574238",
"[  c #6B453C",
"{  c #703D40",
"}  c #3D4740",
"|  c #444B47",
" . c #5A4946",
".. c #4B514A",
"X. c #56544D",
"o. c #565B56",
"O. c #4C5453",
"+. c #674647",
"@. c #62554B",
"#. c #6B5A53",
"$. c #655854",
"%. c #765A55",
"&. c #765549",
"*. c #59655C",
"=. c #77604D",
"-. c #67655B",
";. c #7B6557",
":. c #7B715E",
">. c #5D6866",
",. c #646E66",
"<. c #776865",
"1. c #6A7668",
"2. c #757C6D",
"3. c #7C7C6C",
"4. c #787466",
"5. c #787A75",
"6. c #6A7874",
"7. c #861B1C",
"8. c #86040F",
"9. c #811D23",
"0. c #852828",
"q. c #89332D",
"w. c #8A3737",
"e. c #953B3A",
"r. c #8F3330",
"t. c #94433C",
"y. c #96483F",
"u. c #88473C",
"i. c #903E41",
"p. c #874847",
"a. c #994946",
"s. c #8C564B",
"d. c #9A534B",
"f. c #9C5B53",
"g. c #9A5653",
"h. c #925752",
"j. c #A24C49",
"k. c #A4564A",
"l. c #AA5A55",
"z. c #AC5556",
"x. c #846757",
"c. c #98645D",
"v. c #87725D",
"b. c #A7655B",
"n. c #B1645A",
"m. c #A95F60",
"M. c #876B66",
"N. c #857867",
"B. c #937967",
"V. c #847E72",
"C. c #8B7B73",
"Z. c #9E6968",
"A. c #A76766",
"S. c #B66A68",
"D. c #A5766A",
"F. c #B6756A",
"G. c #AB7871",
"H. c #B77974",
"J. c #C37E77",
"K. c #748374",
"L. c #7C8475",
"P. c #7A837B",
"I. c #7C8A7A",
"U. c #778579",
"Y. c #78826E",
"T. c #86836E",
"R. c #8B8474",
"E. c #83847B",
"W. c #8B8C7C",
"Q. c #868778",
"!. c #938C7C",
"~. c #968875",
"^. c #88917D",
"/. c #96947B",
"(. c #94846C",
"). c #B8857F",
"_. c #A2957C",
"`. c #A78376",
"'. c #C88A79",
"]. c #CC997D",
"[. c #7B8A83",
"{. c #7E9285",
"}. c #8C8D83",
"|. c #858C86",
" X c #918786",
".X c #849386",
"XX c #84948D",
"oX c #8C9788",
"OX c #949283",
"+X c #9B9584",
"@X c #949B8C",
"#X c #9C9D8C",
"$X c #969887",
"%X c #8A9A96",
"&X c #949D95",
"*X c #969B94",
"=X c #B88983",
"-X c #A59789",
";X c #BD928D",
":X c #BD9994",
">X c #8EA497",
",X c #93A394",
"<X c #9CA195",
"1X c #93A39D",
"2X c #96AB9C",
"3X c #9CA39B",
"4X c #9AA18C",
"5X c #A5A796",
"6X c #B3A996",
"7X c #A9B29E",
"8X c #B1AA92",
"9X c #8F9FA0",
"0X c #9AABA4",
"qX c #9BB3A8",
"wX c #9CB7B2",
"eX c #A4ADA5",
"rX c #A3B4AB",
"tX c #A7B5A7",
"yX c #A6B8B5",
"uX c #B7BDAE",
"iX c #C48987",
"pX c #C89689",
"aX c #C89A96",
"sX c #D49E96",
"dX c #D59986",
"fX c #CAA19B",
"gX c #D9A39A",
"hX c #DEA38E",
"jX c #D8AAA5",
"kX c #DAB2A9",
"lX c #DDB8B3",
"zX c #CAB0A9",
"xX c #E5B6AD",
"cX c #E4B9B5",
"vX c #E1AEAC",
"bX c #E3AE9E",
"nX c #B6C5BA",
"mX c #ACC3B5",
"MX c #E4C3BE",
"NX c #A6C1C0",
"BX c #EECFCE",
"VX c #E2E3DE",
"CX c #E3E8E5",
"ZX c #D6D3CE",
/* pixels */
"O ; p a a a p i p p y v a a a x i s a s S v s S a a f a p p p p a u s y a a i i a a a a a p p a x x x a v x v v b c S S a v e $ ",
". % * 8 8 * * * 8 0 0 0 q - 0 - 0 8 0 8 8 0 0 0 8 q q q 0 9 q = = 9 = = - = = * = 0 8 8 8 = = * * = ; - 8 = w = = e y 9 9 e * o ",
". % = = 8 = = = 0 0 8 t 9 9 8 8 q q 0 q t q 8 9 8 q q t 0 9 - t 8 0 8 0 0 = = = 0 q 8 0 = 8 8 8 9 8 8 8 9 9 8 8 8 9 8 9 * t = O ",
"o * 8 = = = % % - = = 8 8 8 = = = = * * 0 - * * * = * = 9 u 9 t 8 8 t 0 % * % % * * * % * * % = * * % $ * * * = = = = t 9 y 8 $ ",
". % = 8 t $   . o O . . . . o . . . o o . . . . . . o . O = q t 9 q 9 O o o . . o O .                               . 8 t t 8 $ ",
". $ 8 8 9 o % * = = 8 8 = = = * = = = 0 0 = * = 8 0 0 q * - q t t 8 8 $ 8 8 - - - - % * = * * = ; * % * % $ $ * = 8 O % y t 9 % ",
". $ 8 8 9 O = 9 8 t 9 9 9 8 9 q 8 q t q u 9 t t j y l y 8 8 i u y y y - y t t q p e e p p p p p p e e 9 w ; ; w e p % - j y 8 % ",
". % 8 8 t $ 8 9 t 9 9 9 9 8 q u t q t u t y y j x k l l 9 u y y y j n 0 t y u t y a 9 p p x x x y a p p p e ; w e p * w M j 9 $ ",
". * 9 9 y $ 8 t t t t t t q u q q q t t y t y y j y k l q i y j l j n 0 t t y t y t y y y x j j y y t y t t 9 9 p p * h c k p % ",
"o * t t y $ 8 9 t y y y t u q 9 9 9 q t y t j j j k z k t u j j i k n 0 y y y t y p p y l z l y y y y j j j y y y y = h B n p * ",
"o % y y j $ 8 9 t j j k t u d t 9 t u u t j j k n n n k 9 y j j l y j * t 9 t t y a y i l y l z l k k m k k k j j j = u 8.M t % ",
"O = n y j $ = 8 t j k j j G Q u y j y k j n n n m m n j 9 9 C C c k j % ; w t t t y H b l i j z z z k m n n n j j k 8 y n c t % ",
"O 9 j j y $ * 8 t y n 7.;XfXzXD.F k b.gXn.m 8.xXjXm k p.^ p.fXfXpXg.y.] =.A.pXt p.jXH.aXF.i b.VXxXV u.fXw.n m j k k 8 t n c p % ",
"$ 9 j p t $ = e 9 j k cX:Xw.Q b.q.l pXsXhXm n dXpXn c c.W Q w.G.f.Q A & s.].F q.G.=Xb G.jXa.d.kXcXa.t.kXr.m n n n k 8 t y c y % ",
"O 9 k 8 j % ; e t j j.cXH.z V z j 0.gX].kX7.n r.r.i y `.W t 8 Z.s.8 p & ~.pXu b.aXw.y A aXlXd.:XF.cXg.=Xr.n n n k n = t 8 k y * ",
"O 9 k c n % 8 e t k z.MXe.V V z z d.gX0.vXj.n m.A.y t =X~ y n l.h.M a , B.pXy H.G.A y a lXxXq.G.t.MXkXb.r.k k n n n = 9 k c p % ",
"O 9 c n n % e e y k 7.BXsXm V Q F G.gXlXBXjXV '.=Xy g =X! y M u.F.N a * x.h.y d.aXQ x H BXF.p.G.F S.jXpXe.k n k m n 8 9 c M p % ",
"O 9 M M m % 8 e t k n k.j.r.A.lXb.b.f.t.b.kXf.G.c.;XzX-XW l M A.y.M j J x.c.F.i iXH.H.l.9.0.a.aX0.C A.xXt.k k j n N 0 y n M t % ",
"O 9 M n n % 9 e t j k j n F f.h.Q s.q.j b a.w.A f.D.Z.Q t l k r.7.M j , g W l.j B j.S.i.C c H g.H k Q a.A k l j x x 9 l M M p $ ",
"O 9 n M n $ 9 e y j j j k n z k z k j j j j k x l z i j t l M M M m z * d f j j k k k n M c k c n k k k k j l a a a 8 i M c t $ ",
"O t M M n % 8 e y j j y j k j v j z k k k k k k z k i y y z M M M M k w Z i j k x j k k k j j j j k j j k j l i f a 8 v c c p $ ",
"O 9 M n n % e e y j j y k j j k j k k k k k n k j y t y t l k c M N k 8 S a j k j y y j k k y j y j y j j y t d f a 8 z c c 9 $ ",
"O p n c n % 8 e t j y x x x j y y y j j j j k k j t y y t l k c N c n 0 b y j k j y y j j j j y y t y y j t t d f a 8 i n x p $ ",
"O 9 n c k $ e e t j j y a y t y y y y a a y j j y y y k y l k c n k n 9 x y j j j j j y y j x j j y y y j t 9 q f a 8 t c c t $ ",
"O 9 M M k $ e e y j j j y t t y y y i a a a x x j j k n y j c k M c n t z j y j j j y j y y j k k k j j j y 9 9 w a 9 t c x p $ ",
"O 9 M M k % 8 9 y j k k j y j j j j y j j j k k j y c M y y k c n k y 9 c j j y j y j j y y k n k k j j j y t e e f 9 9 n M j $ ",
"$ t N 8 j % 9 9 t j k k j j j j y y y y y j y y y p x n t t 9 c M 8 t 9 M l t y y y y y y t j k j j y t t t 9 8 e y 8 9 w N p % ",
"O 9 M j j $ e e t y n k k j y y y y j y j j j y p p c c 9 t x k M y y 8 c y t t y y j y y y y j j j y y t y t 9 e a 9 9 j N y % ",
"O 9 M M k % e e t t k n k j y y y y j y t y y j t p x M e y k c M n k 8 x y t y y y y j y t y j j j j y t t y 9 9 t 8 9 c n p $ ",
"O 9 M M j * 9 9 t j k n j y t t t y t t 9 9 t t 9 p x c 8 y x c c c n 8 c j j y j j j j y y y j j j j j y t t 9 8 9 = 8 n M p $ ",
"O e M M n * p p t j k k j j y y t 9 t 9 9 9 9 t p p x c e q k c c n n 0 c c k n k k j y y y j k j j y y y t t 9 t t 8 t M M 9 $ ",
"O 9 M M n * 9 t t y j j j y y j y t 9 8 8 9 t p p p x c 8 t k c M M n 9 c k k n n k k j k B k n j y y y y y 9 9 9 9 8 y N n p $ ",
"O 9 M c n % e 8 t t y y hX'.g.a.Q y h MXW Q b.F.b.dXhXj.8 u n.S.J.C C { M i.jXk.S.H.cXvXz.iX'.9.J.).aXt y t 9 8 9 t 8 u n M a % ",
"O p n c k * 9 9 9 9 t j '.t.a.y.v i Q =XG.s.'.Q 9 s.w.x = d j.9.n.j.0.R w.e.j.S.S.BX7.j.7.J.e.C '.Q kXy y t 9 8 8 9 * t M M x % ",
"O p M M n * 8 9 9 9 t y n.F F.H.Q y h.b.gXh Q '.w.p.d.j = q S.7.z.J.H +.Z.b.j.gXj.vXC l.e.sXA b bXA.H.p j t 9 8 9 9 = u N M p % ",
"O t M n k % 9 9 9 8 t t jXj.t.s.dXn.F.9 H.d.dX).l g.a.x - 8 J.'.m.w.Z ; pXS.q.j.i.0.r.w.A xXiXi.sXi iXQ y t t t 9 9 = 8 M M y % ",
"O 9 x x j % 9 8 9 9 9 y b j j y y y 9 9 9 t t j y y a x * 8 j j j x 9 = t 9 t t t y y j y t y t t y t t y y t 9 t t = 9 8.M y % ",
"O 8 x n j * 9 9 9 9 t y z j k j y t 8 9 9 9 9 y t y a p = 9 x k k k e * 9 9 8 8 9 9 y t y y j t t y t t t t t t t y = 8 n N p % ",
"O 8 k p y % 9 t t y y y j j j j j y t 9 e e 9 t p p a p * 8 8 c c e 9 * 9 8 8 8 8 9 t t t y y j j j y t t t t y j j = 8 9 N y % ",
"O = j y y $ 9 t t t y j j j y y y y t 9 9 9 p e t p a a = = t j x t 8 % 9 8 9 8 8 9 9 t 9 y j j j k j y t j j j j k = 9 t N t % ",
"O = a c y $ 9 j j y t y y j k y S g y y 9 a p 9 t t y y * * k x x j 9 % y t t t 9 t t t t y y l Z S b Q y j c v l k = 9 k M j $ ",
"2 5.C.c.<.6 Y w 9 8 8 8 8 r M.M.-X&.$XC.M.yX^ * = 8 t 9 O % C.NXx.*X.Xo.nXmX! = 8 = 8 = = r C.nXeX$X~.^ 2X6X~ 8 h 8 O = 9 i +.3 ",
"4 XXrXwX0X> 8 9 9 = = 8 ; N.tX!.<XOXrX*X0X+.9 8 8 8 9 e O U 3XtX-X3X&X..yX+.9 8 8 = 8 8 w <.eXuXtXeX*X<X0X^ 9 9 8 = O = :  XyXO.",
"6 {.NXNX! o = 8 t 8 8 q ;.7XuX8X_.tX5X}.! 9 t 8 t t t p 3 ,.eX_.4X5X|.| +.8 9 8 t 8 8 ; ;.!.<XtXyX*XqX@X[ 8 9 8 t 9 O % <.yX%Xo.",
"} {.wX+.9 . = 8 9 = w [ _.fXnX8X-X#XOXK 9 9 9 8 9 8 r M.o.+.eX@X5XmX.X> = 8 9 8 8 = ; ;.B.~.eXeX0X0X1XY 8 8 8 9 9 ; o 6 wX0X*XO.",
"6 P.] w e O = 8 9 0 x.~.(.8X8X(.(.W.W 8 9 9 8 8 8 e B.nXo.o.eX*XtX,X .O = 9 8 = 8 w &.B.x.-X7XtX@X}.R 8 8 8 8 8 8 w 2 >.wXyX9X@.",
"5 3 ; 8 9 . * 8 0 %._./._.8X8X(.(.[ e 8 8 9 = 8 8 M.uXmX..o.*X%XrX+.r . * 8 = = = %.*X~.v.~.~.*X&X+.e 8 8 9 8 = 8 #...o.qXmX!. .",
"+ $ = = 8 . * w &./.~.v.~._.4X/.Y - * = = 8 = w %.tXnXyX) X.0X&X+.= ; o = = = * #.!.OXeX!.E.4.R.P = 8 = 9 8 = w %.oX..O.wXtX}. .",
". $ w ; = o * x./.~./.(.(./.4XP = = * * = = e 3.eX7XmXqX5 ..>XY = 8 8 o = = - -.OXW.Q.OX$X,X^.P = 8 8 = 8 8 w ;. X/...*.qXmX%X> ",
". $ 9 * = O #.~.#X#X!.B.(./.[ - = = = = * - <.}.1X0XyXqX5 o.W = t * 9 o * w 5.>XOXV.N./.2X0XY * 9 w 9 = 8 w ;.5X7XoX_ o.,XuX! O ",
". $ = = - 2 W.5X*X*XW.!.oXR * = = * = = : <.9XXXoX,XqX1X4 , % 8 = * 8 . * <.qX,XoX}.W./.,X+.8 8 8 w 8 8 - %.Q.$X/.I._ ..1.+.8 O ",
". $ = - X._ ^.#X-X#XN.v.U * * * = * * : #.XX%X}.E.%X0X{.# O 8 * 8 * = . -.1X,XoXV.!.L.E.R p 8 8 9 = * = =.|.R.OXoXY._ ..! 9 * . ",
". O & o.[.) |.@X@XOXB.Y = = 8 = * * * =.2X,XoX.XXX2X,XP . O = * * * % 2 .XoX@XN.4.E.U.P = 9 8 w = = ; <.*X,X!.T.OXI.) > * 8 * . ",
". $ -.9X5.} ^.eX5X/.T = = 8 8 = = * ;.5X$X$XoXoX^.oX] * . $ = * * *  .} Q.!.T.N.N.%.L * * 9 8 = = * o.9X2X&X^.N.R.5.@ $ * 8 * . ",
"  X.|.XX<.} XX*X<XT = * = = = * = =.~.$X/.^.oX^.:.U = * . % * = ; $.[.6 L.Q.R.}.}.U ; % * = * % % X.XX{.3.I.E.I.T.I . $ % = $ . ",
"@ 6.XX0XP.| %XwX! % * * * % * %  .T.Q.^.R.Y.U.U.J $ * = O O * * +.%X6.5 3.!.C.C.J $ * % * % * % ] U.[.P.4.5.K.4.K $ . % % $ $ o ",
"3 ,.[.Q.L.| %X! = * = * * * : %. X3.|.5.E.3.P.J % % * * O O = #.C.@X1.5 5.&X%XY = * = * % % % @.;.2.P.K.2.XXR.Y $ % . $ % % $ 2 ",
"5 ,.N.C.U.X.! = = * * % * = $..XI.[.E.3.I.E.P % * * = = O % -.}.>X}.1.7 [. XT = = * * * = ; #.I.U.L.L.I.N.*XU % * % . % % * | | ",
"5 >.:.E.R.! 8 8 * % % % & o.[..XI.K.Y.5.2.P * * * % * = $ T T.^.E.Q.,.) ,.( * % % % $ % % $.L.5.K.K.4.-.1.E $ % % $ . * % $.,.` ",
"6 ,..X5.T p k k M k k v ).lXZXCXVXZXVXVXc.x k j M k k b v.C.Y.:.:.V.N.N.K = 9 = 8 = - w  XyX0X5XqXqXtX#XQ = 8 = 9 8 8 = $.P.o.) ",
"7 ,.5.! * = 8 = = % & @.N.[ v.2.,.1.1.L * * * * * % $ ! v.v.T.T.L.I.P.J 8 i t y 9 8 * #.I.>X1.^.rX>X>X%.p 9 t 8 9 8 % ] 1.Y.-.5 ",
"< I L * * * * * * & ] L.K.:.@.-.1.1.L % $ % $ $ % $ ] =.=.(.T.:.T.T.L % % * * * * $ ] 2.K.2.-.-.,.*.L % $ % $ $ $ $ U Y.^.W.*.7 ",
"@ + o o O O O O O > ) ' ' ` L 4 ) > o O O o o o o > 4 3 ` O.$.` ' > O . . o o O o > 4 ` ) ) 6 6 6 @ o o O . o . o > 4 ` o.X.4 < ",
"X                             .                             X                                                         # @ #   @ "
};
